<?xml version="1.0" encoding="UTF-8"?><svg xmlns="http://www.w3.org/2000/svg" viewBox="0 0 837.55 412.46"><defs><style>.d,.e{fill:#fff;}.e{font-family:Montserrat-ExtraBold, Montserrat;font-size:57.54px;}.f{letter-spacing:-.03em;}</style></defs><g id="a"/><g id="b"><g id="c"><g><g><g><path class="d" d="M202.66,20.12c-50.04,27.43-85.69,97.45-69.82,136.32,3.47-8.3,6.05-16.53,10.23-23.85,3.96-6.93,9.6-12.92,14.79-19.71,2.02,2.59,3.04,3.29,2.99,3.9-3.8,42.57,16.77,74.22,45.3,102.82,10.51,10.53,21.26,21.85,27.98,34.82,7.01,13.51,9.29,29.46,11.03,45.44-7.16-47.57-43.92-71.56-76.82-98.67-19.51-16.08-39.25-32.03-57.35-49.61C72.61,114.33,50.64,68.84,46.58,15.2c-.35-4.66-1-9.3-1.54-13.94-.05-.44-.38-.84-.58-1.26C20.84,29.33-3.35,110.12,3.1,169.71c6.16,56.95,32.88,102.24,79.5,136.24-33.19-48.89-49.99-102.52-49.07-164.53,2.41,4.03,3.78,5.53,4.3,7.29,10.57,35.5,34.71,59.09,66.79,75.69,10.81,5.6,21.76,10.94,32.64,16.41,60.64,30.45,78.83,66.62,67.21,133.54-.79,4.54-1.41,9.12-2.19,14.24,50.31-22.32,75.13-84.72,53.46-133.3-5.32-11.93-11.32-23.66-18.12-34.82-37.75-61.94-55.88-127.3-34.95-200.34Z"/><path class="d" d="M144.02,376.89C74.84,360.72,31.91,315.1,1.9,253.88c-14.77,68.26,58.74,131.64,142.12,123.01Z"/><path class="d" d="M38.2,373.1c11.17,33.21,59.96,47.52,103.48,34.69-17.67-3.69-36.89-5.96-54.85-11.95-17.32-5.78-33.35-15.42-48.63-22.73Z"/></g><g><g><path class="d" d="M334.85,155.06c0-27.24,19.08-45.97,46.32-45.97s45.63,18.21,45.63,45.8v42.16h-18.91v-16.83c-5.2,12.66-16.83,19.08-30.36,19.08-20.82,0-42.68-14.92-42.68-44.24Zm71.3-.87c0-15.09-10.06-25.85-25.15-25.85s-25.33,10.76-25.33,25.85,10.24,25.85,25.33,25.85,25.15-10.76,25.15-25.85Z"/><path class="d" d="M454.72,152.46c0-28.62,17-43.37,42.33-43.37s42.33,14.57,42.33,43.37v44.58h-20.64v-44.58c0-16.31-8.67-24.11-21.68-24.11s-21.68,7.81-21.68,24.11v44.58h-20.64v-44.58Z"/><path class="d" d="M566.78,206.41h20.82c3.47,7.98,11.8,11.62,22.73,11.62,15.27,0,24.81-7.11,24.81-27.06v-7.46c-5.9,9.54-16.13,14.75-28.97,14.75-20.47,0-42.33-13.7-42.33-44.06,0-26.02,19.08-45.1,46.14-45.1s45.8,18.04,45.8,45.8v35.39c0,32.79-20.3,45.62-45.45,45.62-21.34,0-38.16-9.19-43.54-29.49Zm68.35-52.22c0-15.09-10.06-25.85-25.15-25.85s-25.33,10.76-25.33,25.85,10.24,24.81,25.33,24.81,25.15-9.71,25.15-24.81Z"/><path class="d" d="M680.23,154.19c0-26.02,19.08-45.1,46.14-45.1s45.8,19.08,45.8,45.1v7.29h-70.26c2.78,12.49,12.32,19.08,24.46,19.08,9.19,0,15.96-2.6,20.3-8.15h22.03c-6.42,16.31-22.03,26.89-42.33,26.89-27.06,0-46.14-19.08-46.14-45.1Zm70.08-9.19c-3.3-11.45-12.66-17.17-23.94-17.17s-20.64,5.9-23.94,17.17h47.88Z"/><path class="d" d="M799.58,73.87h20.64v123.17h-20.64V73.87Z"/></g><g><path class="d" d="M335.54,278.8c0-17.18,11.6-28.35,28.24-28.35s28.67,11.6,28.67,28.46c0,18.15-13.53,27.38-26.42,27.38-7.62,0-13.96-3.22-17.72-9.13v30.39h-12.78v-48.75Zm44.03-.43c0-9.34-6.34-16-15.68-16s-15.57,6.66-15.57,16,6.23,16,15.57,16,15.68-6.66,15.68-16Z"/><path class="d" d="M407.6,274.08c0-16,9.45-23.63,23.3-23.63s23.2,7.62,23.2,23.84v.32h-12.67v-.54c0-8.59-4.3-11.71-10.52-11.71s-10.52,3.11-10.52,11.71v30.82h-12.78v-30.82Z"/><path class="d" d="M465.59,278.37c0-16.11,11.81-27.92,28.56-27.92s28.57,11.81,28.57,27.92-11.81,27.92-28.57,27.92-28.56-11.81-28.56-27.92Zm44.14,0c0-9.34-6.23-16-15.57-16s-15.68,6.66-15.68,16,6.34,16,15.68,16,15.57-6.66,15.57-16Z"/><path class="d" d="M537.86,284.49v-51.44h12.78v18.79h27.38v11.6h-27.38v21.05c0,7.09,3.65,9.88,8.91,9.88s8.91-2.68,8.91-9.88v-1.4h12.78v1.4c0,14.71-8.81,21.8-21.69,21.8s-21.69-7.09-21.69-21.8Z"/><path class="d" d="M594.02,278.37c0-16.11,11.81-27.92,28.56-27.92s28.57,11.81,28.57,27.92-11.81,27.92-28.57,27.92-28.56-11.81-28.56-27.92Zm44.14,0c0-9.34-6.23-16-15.57-16s-15.68,6.66-15.68,16,6.34,16,15.68,16,15.57-6.66,15.57-16Z"/><path class="d" d="M664.15,278.37c0-16.11,11.81-27.92,28.56-27.92,14.39,0,24.91,8.7,27.49,21.26h-12.89c-2.25-5.69-7.62-9.34-14.6-9.34-9.34,0-15.68,6.66-15.68,16s6.34,16,15.68,16c6.98,0,12.35-3.65,14.6-9.34h12.89c-2.58,12.56-13.1,21.26-27.49,21.26-16.75,0-28.56-11.81-28.56-27.92Z"/><path class="d" d="M733.2,278.37c0-16.11,11.81-27.92,28.56-27.92s28.57,11.81,28.57,27.92-11.81,27.92-28.57,27.92-28.56-11.81-28.56-27.92Zm44.14,0c0-9.34-6.23-16-15.57-16s-15.68,6.66-15.68,16,6.34,16,15.68,16,15.57-6.66,15.57-16Z"/><path class="d" d="M807.29,228.65h12.78v76.24h-12.78v-76.24Z"/></g></g></g><text class="e" transform="translate(674.07 363.31)"><tspan x="0" y="0">BE</tspan><tspan class="f" x="82.92" y="0">T</tspan><tspan x="117.44" y="0">A</tspan></text></g></g></g></svg>